<svg width="24" height="24" viewBox="0 0 24 24" fill="none" xmlns="http://www.w3.org/2000/svg">
<path d="M21.024 11.296V6.99599C21.017 6.54444 20.9484 6.09597 20.82 5.66299C20.4919 4.51831 19.7657 3.52847 18.7723 2.87185C17.7789 2.21523 16.5837 1.93501 15.402 2.0817C14.2203 2.22839 13.1298 2.79234 12.3271 3.67191C11.5244 4.55148 11.0623 5.68882 11.024 6.87899V7.12699L11.014 7.99699V17.949H11.01V17.99C11.01 18.5204 10.7993 19.0291 10.4242 19.4042C10.0492 19.7793 9.54044 19.99 9.01001 19.99C8.47958 19.99 7.97087 19.7793 7.5958 19.4042C7.22072 19.0291 7.01001 18.5204 7.01001 17.99C7.01001 17.978 7.01301 17.966 7.01401 17.953H7.01001V16.01H5.01001V18.01H5.01201C5.01267 19.0703 5.43453 20.087 6.18476 20.8363C6.935 21.5856 7.95217 22.0062 9.01251 22.0055C10.0728 22.0048 11.0895 21.583 11.8388 20.8327C12.5881 20.0825 13.0087 19.0653 13.008 18.005H13.01V17.023H13.015V8.99699L13.025 7.12699V6.87999C13.0535 6.09275 13.3904 5.34828 13.963 4.80726C14.5356 4.26625 15.298 3.97207 16.0856 3.98821C16.8731 4.00436 17.6228 4.32954 18.1727 4.89356C18.7227 5.45759 19.0288 6.21524 19.025 7.00299V11.278C18.6421 11.4947 18.3413 11.8316 18.1694 12.2366C17.9974 12.6417 17.9639 13.0921 18.074 13.5181C18.1842 13.9441 18.4317 14.3218 18.7784 14.5928C19.1251 14.8637 19.5515 15.0127 19.9914 15.0167C20.4314 15.0207 20.8604 14.8794 21.2119 14.6147C21.5634 14.35 21.8177 13.9768 21.9355 13.5528C22.0533 13.1289 22.0279 12.6779 21.8633 12.2699C21.6986 11.8619 21.404 11.5195 21.025 11.296H21.024Z" fill="#121214"/>
</svg>
